# xmcd
#
# Track frame offsets: 
#        150
#        17087
#        30962
#        40437
#        50162
#        63062
#        75887
#        87637
#        99950
#        112112
#
# Disc length: 1628 seconds
#
# Revision: 1
# Processed by: cddbd v1.5.2PL0 Copyright (c) Steve Scherf et al.
# Submitted via: ExactAudioCopy v0.99pb4
#
DISCID=73065a0a
DTITLE=Patsy Cline - Sings Song Of Love
DYEAR=1995
DGENRE=Country
TTITLE0=Faded Love
TTITLE1=You Belong To Me
TTITLE2=Back In Baby's Arms
TTITLE3=True love
TTITLE4=Someday (You'll Want Me To Want You)
TTITLE5=I Fall To Pieces
TTITLE6=Sweet Dreams (Of You)
TTITLE7=Crazy
TTITLE8=He Called Me Baby
TTITLE9=I Love You So Much (It Hurts)
EXTD=
EXTT0=Patsy Cline
EXTT1=Patsy Cline
EXTT2=Patsy Cline
EXTT3=Patsy Cline
EXTT4=Patsy Cline
EXTT5=Patsy Cline
EXTT6=Patsy Cline
EXTT7=Patsy Cline
EXTT8=Patsy Cline
EXTT9=Patsy Cline
PLAYORDER=
